<svg width="37" height="37" viewBox="0 0 37 37" fill="none" xmlns="http://www.w3.org/2000/svg">
<g clip-path="url(#clip0_360_9676)">
<path d="M16.2321 12.2997V10.3299C16.2321 9.98739 16.489 9.73047 16.8316 9.73047H19.829C20.1716 9.73047 20.4285 9.98739 20.4285 10.3299V12.2997C20.4285 12.6422 20.6854 12.8992 21.028 12.8992H23.2546C23.5972 12.8992 23.8541 13.1561 23.8541 13.4986V16.5817C23.8541 16.9242 23.5972 17.1812 23.2546 17.1812H21.028C20.6854 17.1812 20.4285 17.4381 20.4285 17.7806V19.7504C20.4285 20.0929 20.1716 20.3498 19.829 20.3498H16.7459C16.4034 20.3498 16.1465 20.0929 16.1465 19.7504V17.7806C16.1465 17.4381 15.8895 17.1812 15.547 17.1812H13.5773C13.2347 17.1812 12.9778 16.9242 12.9778 16.5817V13.4986C12.9778 13.1561 13.2347 12.8992 13.5773 12.8992H15.6326C15.9752 12.8992 16.2321 12.6422 16.2321 12.2997Z" stroke="#1D3443" stroke-width="1.5" stroke-miterlimit="10"/>
<path d="M26.7821 35.1346H10.0495C9.63536 35.1346 9.22119 34.8033 9.22119 34.3063V2.99485C9.22119 2.58068 9.55253 2.1665 10.0495 2.1665H26.6993C27.1134 2.1665 27.5276 2.49784 27.5276 2.99485V34.3891C27.5276 34.7204 27.1963 35.1346 26.7821 35.1346Z" stroke="#1D3443" stroke-width="1.5" stroke-miterlimit="10"/>
<path d="M15.5166 35.1345V29.0876C15.5166 28.6734 15.8479 28.2593 16.3449 28.2593H20.4867C20.9008 28.2593 21.315 28.5906 21.315 29.0876V35.1345" stroke="#1D3443" stroke-width="1.5" stroke-miterlimit="10"/>
<path d="M10.7949 35.1345H2.51145C2.09728 35.1345 1.68311 34.8032 1.68311 34.3062V17.6565C1.68311 17.2423 2.01444 16.8281 2.51145 16.8281H9.22104" stroke="#1D3443" stroke-width="1.5" stroke-miterlimit="10"/>
<path d="M25.7051 35.1345H33.9885C34.4027 35.1345 34.8169 34.8032 34.8169 34.3062V17.6565C34.8169 17.2423 34.4855 16.8281 33.9885 16.8281H27.2789" stroke="#1D3443" stroke-width="1.5" stroke-miterlimit="10"/>
</g>
<defs>
<clipPath id="clip0_360_9676">
<rect width="36.4471" height="36.4471" fill="white" transform="translate(0.0263672 0.427002)"/>
</clipPath>
</defs>
</svg>
