<svg width="37" height="37" viewBox="0 0 37 37" fill="none" xmlns="http://www.w3.org/2000/svg">
<path d="M18.8731 32.6822C20.329 31.2263 21.8705 29.6848 23.3264 28.2289C26.6664 24.8889 30.3489 21.8059 31.1196 16.9244C31.8048 13.1562 30.7771 9.13112 28.2079 6.30499C26.752 4.76347 24.9536 3.56451 22.8982 2.96503C17.6741 1.42351 11.5937 3.39323 8.425 7.93216C6.36964 10.9296 5.59888 14.6977 6.62656 18.209C7.65424 21.6346 10.2234 24.2894 12.7927 26.773C13.3921 27.2868 17.3316 31.1406 18.8731 32.6822Z" stroke="#1D3443" stroke-width="1.5" stroke-miterlimit="10"/>
<path d="M16.9032 30.7126C16.0468 30.7126 15.1047 30.7126 14.2483 30.7983C12.8781 30.8839 11.2509 31.0552 10.1376 31.9116C9.02429 32.6824 9.88069 33.6244 10.9084 33.8813C11.8504 34.1383 12.8781 34.3095 13.9058 34.4808C16.2181 34.8234 18.5304 34.909 20.8426 34.8234C23.0693 34.7377 25.3816 34.5665 27.5226 33.8813C28.2933 33.6244 29.0641 32.9393 28.2933 32.2542C27.7795 31.7403 27.0087 31.569 26.3236 31.3978C24.6108 30.9696 22.2792 30.827 20.5664 30.9127" stroke="#1D3443" stroke-width="1.5" stroke-miterlimit="10"/>
<path d="M18.8732 24.5459C24.1705 24.5459 28.4649 20.2516 28.4649 14.9542C28.4649 9.6569 24.1705 5.36255 18.8732 5.36255C13.5758 5.36255 9.28149 9.6569 9.28149 14.9542C9.28149 20.2516 13.5758 24.5459 18.8732 24.5459Z" stroke="#1D3443" stroke-width="1.5" stroke-miterlimit="10"/>
<path d="M24.354 9.96802C24.6109 10.2249 25.0391 10.5675 25.3817 11.167" stroke="#1D3443" stroke-width="1.5" stroke-miterlimit="10" stroke-linecap="round"/>
<path d="M17.8142 7.42114C19.7835 7.37783 20.984 7.43708 22.8978 8.76556" stroke="#1D3443" stroke-width="1.5" stroke-miterlimit="10" stroke-linecap="round"/>
<path d="M16.7321 12.2997V10.3299C16.7321 9.98739 16.989 9.73047 17.3316 9.73047H20.329C20.6716 9.73047 20.9285 9.98739 20.9285 10.3299V12.2997C20.9285 12.6422 21.1854 12.8992 21.528 12.8992H23.7546C24.0972 12.8992 24.3541 13.1561 24.3541 13.4986V16.5817C24.3541 16.9242 24.0972 17.1812 23.7546 17.1812H21.528C21.1854 17.1812 20.9285 17.4381 20.9285 17.7806V19.7504C20.9285 20.0929 20.6716 20.3498 20.329 20.3498H17.2459C16.9034 20.3498 16.6465 20.0929 16.6465 19.7504V17.7806C16.6465 17.4381 16.3895 17.1812 16.047 17.1812H14.0773C13.7347 17.1812 13.4778 16.9242 13.4778 16.5817V13.4986C13.4778 13.1561 13.7347 12.8992 14.0773 12.8992H16.1326C16.4752 12.8992 16.7321 12.6422 16.7321 12.2997Z" stroke="#1D3443" stroke-width="1.5" stroke-miterlimit="10"/>
</svg>
