<svg width="37" height="37" viewBox="0 0 37 37" fill="none" xmlns="http://www.w3.org/2000/svg">
<path d="M16.4328 6.02415C14.7761 5.44431 12.9538 4.86447 10.8001 5.60998C4.50466 7.84651 8.06654 17.2896 9.39189 21.6799C9.8889 23.2537 10.3859 24.9104 11.0486 26.4843C11.6284 27.8096 12.0426 29.3006 12.8709 30.4603C13.1194 30.7916 13.3679 31.0401 13.6993 31.2058C14.0306 31.3715 14.5276 31.3715 14.859 31.2058C15.7701 30.7916 16.0186 29.2178 16.1843 28.3894C16.4328 27.1469 16.5985 25.9872 16.847 24.7447C17.0127 24.1649 17.0955 23.585 17.5097 23.1709C17.6753 23.0052 17.9238 22.8395 18.1723 22.8395C18.7522 22.7567 19.1664 23.4194 19.332 23.9992C19.829 25.4074 20.0775 26.8984 20.4089 28.3894C20.6574 29.4663 21.5686 32.6968 23.3909 31.123C23.7222 30.7916 24.2193 29.9633 24.3849 29.632C25.3789 27.6439 26.5386 24.0821 27.5326 20.8515C28.4438 17.7866 29.5207 14.1419 29.2722 10.9114C29.1065 8.01218 27.0356 5.44431 23.9708 5.19581C22.0656 5.03014 20.5745 5.60998 19.0835 6.60399C18.1723 7.18383 17.4268 8.17785 16.2672 8.17785" stroke="#1D3443" stroke-width="1.5" stroke-miterlimit="10" stroke-linecap="round" stroke-linejoin="round"/>
<path d="M27.2841 11.9053C27.5326 9.50306 25.7931 7.51503 23.9707 7.34937" stroke="#1D3443" stroke-width="1.5" stroke-miterlimit="10" stroke-linecap="round" stroke-linejoin="round"/>
<path d="M26.5387 14.7217L26.1245 16.7925" stroke="#1D3443" stroke-width="1.5" stroke-miterlimit="10" stroke-linecap="round" stroke-linejoin="round"/>
</svg>
